<?xml version="1.0" standalone="no"?>
<!DOCTYPE svg PUBLIC "-//W3C//DTD SVG 20010904//EN"
 "http://www.w3.org/TR/2001/REC-SVG-20010904/DTD/svg10.dtd">
<svg version="1.0" xmlns="http://www.w3.org/2000/svg"
 width="402.000000pt" height="140.000000pt" viewBox="0 0 402.000000 140.000000"
 preserveAspectRatio="xMidYMid meet">

<g transform="translate(0.000000,140.000000) scale(0.100000,-0.100000)"
fill="#000000" stroke="none">
<path d="M91 1377 c-13 -6 -34 -25 -45 -40 -21 -28 -21 -37 -24 -620 -2 -548
-1 -595 15 -627 37 -72 11 -70 741 -70 702 0 700 0 736 51 14 21 16 86 16 634
0 673 3 637 -64 669 -30 14 -104 16 -693 16 -502 0 -664 -3 -682 -13z m707
-282 c69 -32 114 -64 107 -76 -4 -5 1 -6 9 -3 9 3 16 9 16 13 0 12 49 31 79
31 61 0 106 -68 118 -180 7 -67 -3 -123 -18 -99 -7 11 -9 10 -9 -7 0 -16 8
-23 30 -28 45 -8 80 -48 80 -89 0 -54 -53 -123 -129 -169 -68 -40 -92 -48 -71
-23 11 13 10 14 -3 9 -13 -4 -16 -19 -15 -60 1 -44 -3 -59 -21 -78 -30 -32
-83 -40 -149 -22 -46 13 -152 70 -152 83 0 2 3 3 8 1 13 -7 57 -25 84 -36 44
-18 121 -24 151 -13 19 8 27 17 27 36 0 29 -4 30 -60 10 -58 -20 -128 -19
-172 4 -36 18 -38 18 -54 0 -10 -11 -34 -24 -55 -30 -86 -26 -149 65 -148 216
0 47 4 72 8 61 7 -19 8 -19 13 1 5 17 0 22 -23 27 -45 9 -79 48 -79 91 0 44
18 81 62 122 34 32 127 88 134 80 2 -2 -21 -24 -52 -48 -54 -43 -104 -110
-104 -141 0 -15 37 -55 44 -47 1 2 8 26 15 52 19 77 50 135 85 157 31 19 32
22 28 70 -4 45 -1 52 26 80 26 26 38 30 84 30 35 0 71 -8 106 -25z"/>
<path d="M646 1064 c-17 -17 -21 -40 -8 -48 5 -3 26 1 48 9 47 17 157 19 186
4 14 -8 18 -8 14 0 -10 16 -133 51 -181 51 -26 0 -50 -6 -59 -16z"/>
<path d="M715 1005 c-5 -2 -22 -6 -37 -9 -16 -4 -28 -10 -28 -15 0 -13 78 -98
111 -122 l30 -21 26 23 c30 29 53 71 53 99 0 34 -100 63 -155 45z"/>
<path d="M983 999 c-8 -8 -1 -20 28 -46 42 -38 75 -87 90 -131 7 -20 8 -15 3
23 -7 72 -53 159 -84 163 -14 2 -30 -2 -37 -9z"/>
<path d="M931 920 c-12 -28 -25 -73 -28 -100 l-6 -48 42 -13 c29 -8 53 -9 79
-3 36 9 37 11 36 51 -1 33 -10 56 -41 100 -22 31 -45 59 -50 60 -6 2 -20 -19
-32 -47z"/>
<path d="M548 873 c-42 -47 -76 -132 -58 -143 20 -12 171 27 184 48 8 14 -12
77 -35 106 -28 36 -51 33 -91 -11z"/>
<path d="M768 739 c-24 -13 -23 -46 2 -59 28 -15 62 7 54 35 -6 18 -22 35 -34
35 -3 -1 -13 -5 -22 -11z"/>
<path d="M1011 690 c-18 -4 -51 -16 -73 -26 -37 -17 -40 -20 -34 -52 6 -38 50
-102 70 -102 36 0 97 84 121 168 6 19 3 22 -22 21 -15 -1 -43 -5 -62 -9z"/>
<path d="M1114 663 c-13 -64 -35 -118 -61 -152 -25 -34 -25 -35 -2 -15 13 12
34 30 47 40 51 42 81 114 57 138 -23 23 -34 20 -41 -11z"/>
<path d="M526 654 c-17 -44 -6 -78 51 -157 42 -57 56 -52 77 27 29 104 29 121
1 134 -39 18 -122 15 -129 -4z"/>
<path d="M475 561 c6 -48 27 -95 58 -128 22 -25 34 -28 57 -13 12 8 7 18 -31
57 -26 26 -57 66 -68 88 l-22 40 6 -44z"/>
<path d="M758 557 c-63 -53 -68 -120 -10 -132 15 -4 35 -8 45 -10 20 -4 127
11 134 19 13 13 -111 146 -136 146 -3 0 -18 -10 -33 -23z"/>
<path d="M2517 953 c-4 -3 -7 -120 -7 -260 l0 -253 44 0 45 0 -6 145 c-4 88
-2 145 3 145 5 0 37 -64 70 -142 l61 -143 41 -3 42 -3 -2 258 -3 258 -43 3
-43 3 2 -146 c0 -81 -1 -149 -4 -151 -3 -3 -19 30 -37 73 -18 43 -46 111 -62
151 -28 68 -31 72 -62 72 -18 0 -36 -3 -39 -7z"/>
<path d="M2880 920 l0 -40 45 0 45 0 0 -220 0 -220 40 0 40 0 2 218 3 217 41
3 c38 3 42 6 48 34 3 16 3 34 0 39 -3 5 -63 9 -135 9 l-129 0 0 -40z"/>
<path d="M3342 943 c-45 -22 -89 -70 -104 -112 -7 -20 -13 -79 -13 -131 0 -83
3 -102 27 -150 39 -79 93 -113 170 -108 67 5 121 41 150 99 47 97 43 259 -9
334 -51 73 -149 104 -221 68z m127 -78 c72 -62 78 -249 9 -318 -26 -26 -34
-29 -75 -24 -75 8 -109 75 -101 197 10 140 90 209 167 145z"/>
<path d="M3680 701 l0 -261 46 0 46 0 -7 145 c-5 91 -4 145 2 145 5 0 37 -64
70 -142 l61 -143 41 -3 41 -3 -2 258 -3 258 -43 3 -43 3 3 -150 c2 -83 0 -151
-3 -151 -4 0 -34 66 -67 148 l-60 147 -41 3 -41 3 0 -260z"/>
<path d="M2037 695 c-70 -140 -127 -257 -127 -260 0 -3 115 -5 255 -5 179 0
255 3 255 11 0 12 -237 489 -248 501 -4 4 -65 -107 -135 -247z m210 21 c40
-79 69 -147 66 -150 -4 -3 -48 -6 -100 -6 -70 0 -93 3 -93 13 0 25 24 37 73
37 27 0 47 4 45 8 -22 52 -63 132 -67 132 -7 0 -111 -206 -111 -219 0 -5 64
-10 142 -10 137 -1 164 -7 155 -34 -3 -10 -377 -15 -377 -5 0 12 184 378 190
378 3 0 38 -65 77 -144z"/>
</g>
</svg>
