<svg xmlns="http://www.w3.org/2000/svg" width="100" height="100" viewBox="0 0 100 100" fill="none">
  <path id="figma" d="M63.8833 36.1167C67.4928 36.0084 70.9181 34.4984 73.4329 31.907C75.9477 29.3156 77.3542 25.8466 77.3542 22.2355C77.3542 18.6244 75.9477 15.1554 73.4329 12.564C70.9181 9.97255 67.4928 8.46257 63.8833 8.35425H36.1167C32.5072 8.46257 29.0819 9.97255 26.5671 12.564C24.0523 15.1554 22.6458 18.6244 22.6458 22.2355C22.6458 25.8466 24.0523 29.3156 26.5671 31.907C29.0819 34.4984 32.5072 36.0084 36.1167 36.1167C32.4757 36.1798 29.0051 37.6705 26.4526 40.2676C23.9 42.8648 22.4697 46.3606 22.4697 50.0022C22.4697 53.6437 23.9 57.1395 26.4526 59.7367C29.0051 62.3339 32.4757 63.8245 36.1167 63.8876C32.4935 63.9764 29.0485 65.478 26.5173 68.072C23.9862 70.6659 22.5693 74.1466 22.5693 77.7709C22.5693 81.3952 23.9862 84.8759 26.5173 87.4698C29.0485 90.0638 32.4935 91.5655 36.1167 91.6543C39.7988 91.652 43.3294 90.188 45.9327 87.584C48.536 84.9799 49.9989 81.4489 50 77.7667V36.1167H63.8833Z" fill="white" fill-opacity="0.5"/>
  <path d="M63.8833 63.8834C71.5509 63.8834 77.7667 57.6676 77.7667 50C77.7667 42.3325 71.5509 36.1167 63.8833 36.1167C56.2158 36.1167 50 42.3325 50 50C50 57.6676 56.2158 63.8834 63.8833 63.8834Z" fill="white" fill-opacity="0.5"/>

  <g id="html">
    <path d="M14.1798 9.375L20.6251 82.2852L50.0001 90.625L79.258 82.2852L85.8302 9.375H14.1798ZM72.2853 26.6699L71.8166 31.2793L71.6505 33.1836H37.3341L38.1349 42.3828H70.8595L70.5373 44.7559L68.4669 68.4082L68.3009 69.9902L50.0392 75.0293V75.0586H49.922L49.8927 75.0684V75.0586H49.883L31.465 69.9805L30.3517 55.8594H39.2482L39.883 63.0078L49.883 65.7129H49.922L59.883 63.0176L60.9962 51.4355H49.8927V51.4258H29.883L27.6564 26.6699L27.4904 24.2969H72.4415L72.2853 26.6699Z" fill="white" fill-opacity="0.5"/>
  </g>

  <g id="css">
  
  <path d="M17.4667 13.0957H82.5292L76.6125 79.904L49.9292 87.454L23.3917 79.8999L17.4667 13.0957ZM70.4167 26.7665L29.5833 26.7582L30.2417 34.879L61.6125 34.8874L60.825 43.304H40.25L40.9958 51.2749H60.15L59.0167 62.1915L50 64.6832L40.8458 62.1707L40.2583 55.6332H32.175L33.075 67.579L50 72.8499L66.6458 68.1124L70.4167 26.7665Z" fill="white" fill-opacity="0.5"/>

  </g>

  <g id="sass"> 
  
  <path d="M47.1624 69.2063C47.0687 69.3751 47.1156 69.3001 47.1624 69.2063V69.2063ZM86.0874 55.6126C82.9437 55.6126 79.8437 56.3313 77.0249 57.7219C76.1031 55.8626 75.1499 54.2376 74.9937 53.0188C74.8062 51.5969 74.6031 50.7532 74.8218 49.0657C75.0406 47.3782 76.0249 44.9876 76.0093 44.8157C75.9937 44.6438 75.7906 43.7844 73.7749 43.7688C71.7593 43.7532 70.0249 44.1594 69.8218 44.6907C69.4652 45.6613 69.1882 46.6594 68.9937 47.6751C68.6343 49.5032 64.9656 56.0344 62.8874 59.4407C62.1999 58.1126 61.6218 56.9407 61.4968 56.0032C61.3093 54.5813 61.1062 53.7376 61.3249 52.0501C61.5437 50.3626 62.5281 47.9719 62.5124 47.8001C62.4968 47.6282 62.2937 46.7688 60.2812 46.7532C58.2687 46.7376 56.5312 47.1438 56.3281 47.6751C56.1249 48.2063 55.9062 49.4563 55.4999 50.6594C55.0937 51.8626 50.2031 62.7376 48.9249 65.5657C48.2687 67.0032 47.7062 68.1594 47.2999 68.9407C47.2374 69.0657 47.1906 69.1438 47.1593 69.2063C47.2062 69.1282 47.2374 69.0501 47.2374 69.0813C46.8937 69.7532 46.6906 70.1282 46.6906 70.1282V70.1438C46.4249 70.6438 46.1281 71.0969 45.9874 71.0969C45.8937 71.0969 45.6906 69.7844 46.0343 67.9876C46.7687 64.2063 48.5031 58.3313 48.4874 58.1282C48.4718 58.0188 48.8156 57.0032 47.3468 56.4563C45.9249 55.9407 45.4093 56.8001 45.2843 56.8001C45.1593 56.8001 45.0656 57.1126 45.0656 57.1126C45.0656 57.1126 46.6437 50.4876 42.0343 50.4876C39.1593 50.4876 35.1593 53.6438 33.1937 56.5032C31.9593 57.1751 29.2874 58.6282 26.4749 60.1751L23.2406 61.9563C23.1624 61.8782 23.0999 61.8001 23.0218 61.7219C17.4281 55.7532 7.10307 51.5344 7.54057 43.5188C7.69682 40.5969 8.71244 32.9251 27.3968 23.6126C42.7093 15.9876 54.9499 18.0813 57.0593 22.7376C60.0906 29.3782 50.5124 41.7376 34.6124 43.5188C28.5499 44.1907 25.3656 41.8469 24.5687 40.9719C23.7406 40.0501 23.6156 40.0032 23.3031 40.1751C22.7874 40.4563 23.1156 41.2688 23.3031 41.7532C23.7718 42.9876 25.7249 45.1751 29.0531 46.2688C31.9749 47.2219 39.0812 47.7532 47.6718 44.4251C57.3249 40.7063 64.8406 30.3469 62.6343 21.6751C60.3906 12.8626 45.7781 9.97194 31.9624 14.8782C23.7281 17.8001 14.8249 22.3938 8.42182 28.3782C0.81244 35.5032 -0.403185 41.7063 0.0968153 44.3001C1.87807 53.5032 14.5624 59.5032 19.6374 63.9407L18.9343 64.3313C16.3874 65.5969 6.71869 70.6594 4.29682 76.0032C1.56244 82.0657 4.74994 86.4094 6.84057 87.0032C13.3718 88.8157 20.0562 85.5501 23.6499 80.1907C27.2437 74.8313 26.8062 67.8313 25.1499 64.6438C25.1343 64.5969 25.1031 64.5657 25.0874 64.5188C26.9624 63.4083 28.8532 62.3248 30.7593 61.2688C30.1343 62.9563 29.6812 64.9876 29.4468 67.9251C29.1656 71.3626 30.5874 75.8157 32.4312 77.5657C33.2437 78.3313 34.2249 78.3469 34.8374 78.3469C36.9937 78.3469 37.9624 76.5657 39.0406 74.4407C40.3687 71.8469 41.5406 68.8313 41.5406 68.8313C41.5406 68.8313 40.0718 76.9876 44.0874 76.9876C45.5562 76.9876 47.0249 75.0969 47.6812 74.1282V74.1438C47.6812 74.1438 47.7124 74.0813 47.7906 73.9563C47.9468 73.7219 48.0249 73.5813 48.0249 73.5813V73.5344C48.6187 72.5188 49.9156 70.1907 51.8687 66.3469C54.3999 61.3782 56.8187 55.1751 56.8187 55.1751C57.0531 56.5376 57.3781 57.8844 57.7874 59.2063C58.2249 60.6907 59.1468 62.3157 59.8812 63.8938C59.2874 64.7063 58.9281 65.1751 58.9281 65.1751C58.9281 65.1876 58.9343 65.1969 58.9437 65.2063C58.4749 65.8313 57.9437 66.5032 57.3968 67.1594C55.3999 69.5344 53.0218 72.2532 52.7093 73.0344C52.3343 73.9563 52.4281 74.6438 53.1468 75.1751C53.6781 75.5813 54.6156 75.6438 55.5999 75.5657C57.3968 75.4407 58.6624 75.0032 59.2718 74.7219C60.3958 74.3192 61.4581 73.7618 62.4281 73.0657C64.3812 71.6282 65.5687 69.5657 65.4593 66.8469C65.3968 65.3469 64.9124 63.8469 64.3187 62.4407C64.4906 62.1907 64.6781 61.9251 64.8499 61.6594C66.8833 58.6255 68.7153 55.4614 70.3343 52.1876C70.5687 53.5501 70.8906 54.8969 71.3031 56.2188C71.6781 57.4844 72.4124 58.8751 73.0843 60.2344C70.1781 62.5938 68.3812 65.3282 67.7593 67.1251C66.6031 70.4532 67.5093 71.9532 69.2124 72.2969C69.9781 72.4532 71.0718 72.0938 71.8843 71.7501C73.0906 71.3469 74.2281 70.7626 75.2562 70.0157C77.2093 68.5782 79.0999 66.5626 78.9718 63.8282C78.9249 62.5938 78.5812 61.3594 78.1281 60.1719C80.5812 59.1407 83.7687 58.5782 87.8312 59.0469C96.5312 60.0626 98.2343 65.5001 97.9062 67.7657C97.5781 70.0313 95.7499 71.2969 95.1406 71.6719C94.5312 72.0469 94.3437 72.1876 94.3906 72.4688C94.4687 72.8751 94.7499 72.8594 95.2656 72.7657C95.9843 72.6407 99.8281 70.9219 100 66.7188C100.25 61.4063 95.1406 55.5626 86.0937 55.6094L86.0874 55.6126ZM19.0281 78.2219C16.1531 81.3626 12.1249 82.5501 10.3906 81.5501C8.53119 80.4688 9.26557 75.8469 12.8093 72.5001C14.9656 70.4688 17.7468 68.5938 19.5906 67.4376C20.0124 67.1876 20.6218 66.8126 21.3718 66.3594C21.4328 66.3204 21.4953 66.2839 21.5593 66.2501C21.6999 66.1563 21.8562 66.0782 22.0124 65.9844C23.3062 70.7344 22.0593 74.9219 19.0281 78.2188V78.2219ZM40.0218 63.9407C39.0218 66.3938 36.9156 72.6438 35.6312 72.3157C34.5374 72.0344 33.8656 67.2688 35.4124 62.5813C36.1937 60.2219 37.8499 57.4094 38.8343 56.3157C40.4124 54.5501 42.1468 53.9876 42.5531 54.6907C43.0999 55.6126 40.6468 62.4094 40.0218 63.9407ZM57.3656 72.2219C56.9437 72.4407 56.5531 72.5813 56.3656 72.4719C56.2249 72.3938 56.5374 72.0969 56.5374 72.0969C56.5374 72.0969 58.7093 69.7688 59.5687 68.7063C60.0687 68.0813 60.6468 67.3469 61.2718 66.5344C61.2718 66.6126 61.2874 66.6907 61.2874 66.7844C61.2687 69.5813 58.5812 71.4719 57.3624 72.2219H57.3656ZM70.7406 69.1751C70.4281 68.9563 70.4749 68.2219 71.5218 65.9407C71.9281 65.0501 72.8656 63.5501 74.4906 62.1126C74.6749 62.6563 74.7749 63.2251 74.7874 63.8001C74.7718 67.3157 72.2562 68.6282 70.7406 69.1751Z" fill="white" fill-opacity="0.5"/>
</g>

<g id="react">

  <path d="M100 44.7043C100 38.0793 91.7042 31.8001 78.9833 27.9084C81.9208 14.9459 80.6167 4.62925 74.8667 1.32508C73.4734 0.54475 71.8965 0.151965 70.3 0.187581V4.72925C71.2375 4.72925 71.9917 4.91675 72.625 5.26258C75.3958 6.85425 76.6 12.9043 75.6625 20.6917C75.4375 22.6084 75.0708 24.6251 74.6208 26.6834C70.361 25.6569 66.0375 24.915 61.6792 24.4626C59.0827 20.8805 56.25 17.4757 53.2 14.2709C59.8458 8.09592 66.0833 4.71258 70.325 4.71258V0.166748C64.7167 0.166748 57.3792 4.16258 49.9583 11.0917C42.5417 4.20842 35.2 0.250081 29.5958 0.250081V4.79175C33.8167 4.79175 40.075 8.15841 46.7208 14.2917C43.8667 17.2917 41.0125 20.6917 38.3 24.4626C33.9326 24.91 29.6015 25.659 25.3375 26.7043C24.8667 24.6667 24.5208 22.6918 24.275 20.7959C23.3167 13.0042 24.5 6.95425 27.2542 5.34592C27.8625 4.97925 28.6583 4.81258 29.5958 4.81258V0.270915C27.8875 0.270915 26.3333 0.637581 24.9917 1.40841C19.2625 4.71258 17.9792 15.0042 20.9333 27.9293C8.25417 31.8459 0 38.1001 0 44.7043C0 51.3293 8.29583 57.6084 21.0167 61.4959C18.0792 74.4626 19.3833 84.7793 25.1333 88.0793C26.4583 88.8543 28.0083 89.2209 29.7167 89.2209C35.325 89.2209 42.6625 85.2251 50.0833 78.2959C57.5 85.1834 64.8375 89.1376 70.4458 89.1376C72.0546 89.1716 73.6435 88.7776 75.05 87.9959C80.7792 84.6959 82.0625 74.4043 79.1083 61.4793C91.7458 57.5876 100 51.3084 100 44.7043ZM73.4583 31.1084C72.6666 33.8328 71.7489 36.519 70.7083 39.1584C69.0048 35.8449 67.1344 32.6199 65.1042 29.4959C68 29.9251 70.7917 30.4542 73.4625 31.1084H73.4583ZM64.125 52.8167C62.5375 55.5667 60.9042 58.1793 59.2125 60.6043C53.0969 61.1433 46.946 61.1502 40.8292 60.6251C37.3206 55.6133 34.2522 50.3074 31.6583 44.7668C34.2483 39.213 37.3036 33.8885 40.7917 28.8501C46.9058 28.31 53.0553 28.3016 59.1708 28.8251C60.8625 31.2501 62.5167 33.8418 64.1042 36.5751C65.6542 39.2417 67.0625 41.9501 68.3458 44.6834C67.0483 47.4499 65.6402 50.1632 64.125 52.8167ZM70.7083 50.1668C71.8083 52.8959 72.75 55.6292 73.5208 58.2793C70.8542 58.9334 68.0375 59.4834 65.125 59.9084C67.1468 56.756 69.0103 53.5047 70.7083 50.1668ZM50.0417 71.9167C48.1458 69.9584 46.25 67.7793 44.375 65.3917C46.2083 65.4751 48.0833 65.5376 49.9792 65.5376C51.8958 65.5376 53.7917 65.4959 55.6458 65.3917C53.8125 67.7793 51.9167 69.9584 50.0417 71.9167ZM34.875 59.9084C32.0656 59.5014 29.2765 58.9647 26.5167 58.3001C27.2708 55.6709 28.2083 52.9584 29.2667 50.2501C30.1042 51.8751 30.9833 53.5084 31.9417 55.1418C32.9 56.7709 33.875 58.3626 34.875 59.9084ZM49.9375 17.4917C51.8333 19.4501 53.7292 21.6292 55.6042 24.0168C53.7708 23.9334 51.8958 23.8709 50 23.8709C48.0833 23.8709 46.1875 23.9126 44.3333 24.0168C46.1667 21.6292 48.0625 19.4501 49.9375 17.4917ZM34.8542 29.5001C32.8328 32.6456 30.9694 35.8899 29.2708 39.2209C28.2009 36.5645 27.2623 33.8571 26.4583 31.1084C29.125 30.4751 31.9417 29.9251 34.8542 29.5001ZM16.4083 55.0168C9.19167 51.9417 4.525 47.9043 4.525 44.7043C4.525 41.5043 9.19167 37.4459 16.4083 34.3918C18.1583 33.6376 20.075 32.9626 22.0542 32.3334C23.2167 36.3251 24.7458 40.4834 26.6375 44.7459C24.8515 48.755 23.3411 52.8813 22.1167 57.0959C20.181 56.4966 18.276 55.8027 16.4083 55.0168ZM27.375 84.1418C24.6042 82.5584 23.4 76.5001 24.3375 68.7168C24.5625 66.8001 24.9292 64.7793 25.3792 62.7209C29.3708 63.7001 33.7333 64.4543 38.3208 64.9459C40.9174 68.528 43.7501 71.9327 46.8 75.1376C40.1542 81.3126 33.9167 84.6959 29.675 84.6959C28.8748 84.7047 28.0847 84.5157 27.375 84.1459V84.1418ZM75.725 68.6126C76.6833 76.4001 75.5 82.4543 72.7458 84.0626C72.1375 84.4293 71.3417 84.5918 70.4042 84.5918C66.1833 84.5918 59.925 81.2293 53.2792 75.0918C56.1333 72.1001 58.9875 68.6959 61.7 64.9251C66.0674 64.4777 70.3985 63.7287 74.6625 62.6834C75.1333 64.7418 75.4958 66.7168 75.725 68.6126ZM83.5708 55.0168C81.8208 55.7709 79.9042 56.4459 77.925 57.0751C76.6791 52.8389 75.1478 48.6919 73.3417 44.6626C75.2167 40.4251 76.7208 36.2876 77.8625 32.3126C79.8833 32.9417 81.7958 33.6376 83.5917 34.3918C90.8083 37.4668 95.475 41.5043 95.475 44.7043C95.4542 47.9043 90.7875 51.9626 83.5708 55.0168Z" fill="white" fill-opacity="0.5"/>
  <path d="M49.9791 54.021C52.4501 54.021 54.8198 53.0394 56.567 51.2922C58.3142 49.545 59.2958 47.1753 59.2958 44.7044C59.2958 42.2334 58.3142 39.8637 56.567 38.1165C54.8198 36.3693 52.4501 35.3877 49.9791 35.3877C47.5082 35.3877 45.1385 36.3693 43.3913 38.1165C41.644 39.8637 40.6625 42.2334 40.6625 44.7044C40.6625 47.1753 41.644 49.545 43.3913 51.2922C45.1385 53.0394 47.5082 54.021 49.9791 54.021Z" fill="white" fill-opacity="0.5"/>
</g>

<g id="mail">

  <path d="M18.125 3.125H1.875C1.5293 3.125 1.25 3.4043 1.25 3.75V16.25C1.25 16.5957 1.5293 16.875 1.875 16.875H18.125C18.4707 16.875 18.75 16.5957 18.75 16.25V3.75C18.75 3.4043 18.4707 3.125 18.125 3.125ZM16.5469 5.25195L10.3848 10.0469C10.2324 10.166 10.0195 10.166 9.86719 10.0469L3.70312 5.25195C3.67989 5.23402 3.66285 5.20927 3.65438 5.18116C3.64592 5.15306 3.64647 5.12301 3.65594 5.09523C3.66542 5.06745 3.68335 5.04333 3.70722 5.02625C3.73109 5.00918 3.75971 5 3.78906 5H16.4609C16.4903 5 16.5189 5.00918 16.5428 5.02625C16.5667 5.04333 16.5846 5.06745 16.5941 5.09523C16.6035 5.12301 16.6041 5.15306 16.5956 5.18116C16.5872 5.20927 16.5701 5.23402 16.5469 5.25195Z" fill="white"/>

</g>

<g id="download">
  <path d="M10 12.5L13.3333 9.16667M10 12.5V2.5V12.5ZM10 12.5L6.66667 9.16667L10 12.5Z" stroke="white" stroke-width="2" stroke-linecap="round" stroke-linejoin="round"/>
  <path d="M1.66667 14.1667L2.18417 16.2376C2.2743 16.5981 2.48236 16.9182 2.77528 17.147C3.0682 17.3757 3.42918 17.5 3.80084 17.5001H16.1992C16.5708 17.5 16.9318 17.3757 17.2247 17.147C17.5177 16.9182 17.7257 16.5981 17.8158 16.2376L18.3333 14.1667" stroke="white" stroke-width="2" stroke-linecap="round" stroke-linejoin="round"/>
</g>

<g id="computer">
  <path fill-rule="evenodd" clip-rule="evenodd" d="M4.5 8.12505C4.5 7.34266 4.81607 6.59232 5.37868 6.03908C5.94129 5.48585 6.70435 5.17505 7.5 5.17505H22.5C23.2956 5.17505 24.0587 5.48585 24.6213 6.03908C25.1839 6.59232 25.5 7.34266 25.5 8.12505V19.925C25.5 20.7074 25.1839 21.4578 24.6213 22.011C24.0587 22.5642 23.2956 22.875 22.5 22.875H19.17L19.3545 23.5963L20.5605 24.7822C20.7702 24.9885 20.913 25.2513 20.9709 25.5374C21.0287 25.8235 20.999 26.12 20.8855 26.3895C20.772 26.6589 20.5798 26.8893 20.3332 27.0514C20.0866 27.2134 19.7966 27.3 19.5 27.3H10.5C10.2034 27.3 9.91343 27.2134 9.66681 27.0514C9.4202 26.8893 9.22799 26.6589 9.11448 26.3895C9.00098 26.12 8.97127 25.8235 9.02912 25.5374C9.08698 25.2513 9.22979 24.9885 9.4395 24.7822L10.6455 23.5963L10.83 22.875H7.5C6.70435 22.875 5.94129 22.5642 5.37868 22.011C4.81607 21.4578 4.5 20.7074 4.5 19.925V8.12505ZM13.1565 18.45H7.5V8.12505H22.5V18.45H13.1565Z" fill="#222A36"/>
</g>

<g id="arrow-right">
  <path d="M1.66666 13.0001H28.3333" stroke="#676CDB" stroke-width="2" stroke-linecap="round" stroke-linejoin="round"/>
  <path d="M16.6667 1.33337L28.3333 13L16.6667 24.6667" stroke="#676CDB" stroke-width="2" stroke-linecap="round" stroke-linejoin="round"/>
</g>

<g id="arrow-left">
  <path d="M28.3333 13L1.66667 13" stroke="#676CDB" stroke-opacity="2" stroke-width="2" stroke-linecap="round" stroke-linejoin="round"/>
  <path d="M13.3333 24.6667L1.66667 13L13.3333 1.33335" stroke="#676CDB" stroke-opacity="2" stroke-width="2" stroke-linecap="round" stroke-linejoin="round"/></g>

  <g id="linkedIn">
  <path fill-rule="evenodd" clip-rule="evenodd" d="M0.041672 1.95624C0.041672 1.44846 0.243386 0.961482 0.602441 0.602428C0.961495 0.243373 1.44848 0.041659 1.95626 0.041659H21.0417C21.2933 0.0412481 21.5426 0.0904746 21.7752 0.18652C22.0077 0.282566 22.2191 0.423544 22.3971 0.601384C22.5752 0.779224 22.7164 0.990434 22.8127 1.22292C22.909 1.45541 22.9585 1.7046 22.9583 1.95624V21.0417C22.9586 21.2934 22.9093 21.5426 22.8131 21.7752C22.7169 22.0078 22.5759 22.2192 22.3979 22.3972C22.22 22.5752 22.0087 22.7164 21.7762 22.8127C21.5437 22.909 21.2944 22.9585 21.0427 22.9583H1.95626C1.70474 22.9583 1.45569 22.9088 1.22334 22.8125C0.99098 22.7162 0.779871 22.5751 0.602072 22.3972C0.424273 22.2193 0.283268 22.0081 0.187112 21.7757C0.0909564 21.5433 0.0415352 21.2942 0.041672 21.0427V1.95624ZM9.11251 8.77916H12.2156V10.3375C12.6635 9.44166 13.8094 8.63541 15.5313 8.63541C18.8323 8.63541 19.6146 10.4198 19.6146 13.6937V19.7583H16.274V14.4396C16.274 12.575 15.826 11.5229 14.6885 11.5229C13.1104 11.5229 12.4542 12.6573 12.4542 14.4396V19.7583H9.11251V8.77916ZM3.38334 19.6156H6.72501V8.63541H3.38334V19.6146V19.6156ZM7.20313 5.05416C7.20943 5.34028 7.15852 5.62477 7.05338 5.89095C6.94824 6.15712 6.791 6.39961 6.59087 6.60419C6.39075 6.80877 6.15178 6.97132 5.88798 7.08229C5.62418 7.19326 5.34088 7.25043 5.05469 7.25043C4.76851 7.25043 4.4852 7.19326 4.22141 7.08229C3.95761 6.97132 3.71864 6.80877 3.51851 6.60419C3.31839 6.39961 3.16114 6.15712 3.05601 5.89095C2.95087 5.62477 2.89996 5.34028 2.90626 5.05416C2.91862 4.49255 3.15041 3.95811 3.55197 3.56529C3.95353 3.17247 4.49295 2.95251 5.05469 2.95251C5.61644 2.95251 6.15585 3.17247 6.55742 3.56529C6.95898 3.95811 7.19076 4.49255 7.20313 5.05416Z" fill="white"/>
</g>

<g id="github">
  <path fill-rule="evenodd" clip-rule="evenodd" d="M12.5 0C5.59375 0 0 5.59375 0 12.5C0 18.0312 3.57812 22.7031 8.54688 24.3594C9.17188 24.4688 9.40625 24.0938 9.40625 23.7656C9.40625 23.4688 9.39062 22.4844 9.39062 21.4375C6.25 22.0156 5.4375 20.6719 5.1875 19.9688C5.04688 19.6094 4.4375 18.5 3.90625 18.2031C3.46875 17.9688 2.84375 17.3906 3.89062 17.375C4.875 17.3594 5.57812 18.2812 5.8125 18.6562C6.9375 20.5469 8.73437 20.0156 9.45312 19.6875C9.5625 18.875 9.89062 18.3281 10.25 18.0156C7.46875 17.7031 4.5625 16.625 4.5625 11.8437C4.5625 10.4844 5.04688 9.35938 5.84375 8.48438C5.71875 8.17188 5.28125 6.89062 5.96875 5.17188C5.96875 5.17188 7.01562 4.84375 9.40625 6.45312C10.4062 6.17188 11.4687 6.03125 12.5312 6.03125C13.5937 6.03125 14.6562 6.17188 15.6562 6.45312C18.0469 4.82812 19.0938 5.17188 19.0938 5.17188C19.7812 6.89062 19.3438 8.17188 19.2188 8.48438C20.0156 9.35938 20.5 10.4687 20.5 11.8437C20.5 16.6406 17.5781 17.7031 14.7969 18.0156C15.25 18.4062 15.6406 19.1562 15.6406 20.3281C15.6406 22 15.625 23.3438 15.625 23.7656C15.625 24.0938 15.8594 24.4844 16.4844 24.3594C18.9658 23.5216 21.1221 21.9268 22.6496 19.7993C24.1772 17.6719 24.9993 15.119 25 12.5C25 5.59375 19.4062 0 12.5 0Z" fill="white"/>
</g>

<g id="instagram">
  <path d="M15.6516 2.09998H5.34844C3.55687 2.09998 2.1 3.55628 2.1 5.34715V8.77799V15.6528C2.1 17.4437 3.55687 18.9 5.34844 18.9H15.6516C17.4431 18.9 18.9 17.4437 18.9 15.6528V8.77143V5.34058C18.8934 3.55628 17.4366 2.09998 15.6516 2.09998ZM16.5834 4.03516H16.9575V4.40251V6.88217L14.1159 6.88873L14.1094 4.04172L16.5834 4.03516ZM8.09812 8.77143C8.63625 8.03016 9.50906 7.53816 10.4934 7.53816C11.4778 7.53816 12.3506 8.0236 12.8887 8.77143C13.2431 9.25687 13.4466 9.85382 13.4466 10.4967C13.4466 12.1236 12.1209 13.4552 10.4869 13.4552C8.85281 13.4552 7.54031 12.1236 7.54031 10.4967C7.54031 9.85382 7.75031 9.25687 8.09812 8.77143ZM17.2594 15.6462C17.2594 16.5318 16.5375 17.2534 15.6516 17.2534H5.34844C4.4625 17.2534 3.74062 16.5318 3.74062 15.6462V8.77143H6.2475C6.03094 9.30279 5.90625 9.88662 5.90625 10.4967C5.90625 13.0288 7.96687 15.0887 10.5 15.0887C13.0331 15.0887 15.0937 13.0288 15.0937 10.4967C15.0937 9.88662 14.9691 9.30279 14.7525 8.77143H17.2594V15.6462Z" fill="white"/>
</g>

<g id="telegram">
  <path d="M18.9057 4.76449L16.3705 16.7208C16.1791 17.5644 15.6804 17.7745 14.9717 17.3772L11.1085 14.5305L9.24472 16.3235C9.0383 16.5299 8.86608 16.7022 8.46824 16.7022L8.74607 12.7681L15.9054 6.29885C16.2169 6.02162 15.8376 5.86741 15.4218 6.14524L6.57084 11.7186L2.76043 10.5257C1.93174 10.2671 1.91674 9.69701 2.93325 9.29917L17.837 3.55716C18.5271 3.29854 19.1308 3.71018 18.9057 4.76449Z" fill="white"/>
</g>

<g id="mail">
  <path fill-rule="evenodd" clip-rule="evenodd" d="M0.13125 4.64667C0.395898 3.46865 1.04647 2.41683 1.97642 1.66349C2.90637 0.910143 4.06057 0.499919 5.25 0.5H36.75C37.9394 0.499919 39.0936 0.910143 40.0236 1.66349C40.9535 2.41683 41.6041 3.46865 41.8687 4.64667L21 17.604L0.13125 4.64667ZM0 7.692V26.636L15.2329 17.148L0 7.692ZM17.7476 18.7133L0.501375 29.452C0.927482 30.3648 1.60001 31.1358 2.44068 31.6754C3.28135 32.215 4.25558 32.501 5.25 32.5H36.75C37.7443 32.5002 38.7181 32.2136 39.5583 31.6736C40.3985 31.1335 41.0705 30.3622 41.496 29.4493L24.2498 18.7107L21 20.7293L17.7476 18.7107V18.7133ZM26.7671 17.1507L42 26.636V7.692L26.7671 17.148V17.1507Z" fill="white"/>
  </g>

<g id="twitter">
  <path d="M1.24466 20.5003C2.51201 20.3456 3.79714 20.5123 5.06449 20.304C5.70109 20.2029 6.2842 19.9887 6.86135 19.7626C5.43342 18.8464 4.14815 17.7992 2.95233 16.5438C2.52395 16.0975 2.83329 15.3478 3.45807 15.3301C3.96979 15.3538 4.46957 15.3123 4.9574 15.211C3.7138 13.6343 2.74995 11.9386 2.00029 10.0346C1.79804 9.52293 2.39297 9.00537 2.87496 9.15997C3.15457 9.27304 3.44016 9.35041 3.73172 9.40986C2.84523 7.27978 2.66077 5.13192 3.15457 2.77571C3.26764 2.23426 3.9816 2.10341 4.34456 2.46039C7.1886 5.25667 10.7823 6.60139 14.6259 7.24395C14.2867 4.6141 16.1551 1.8177 18.6063 0.901355C20.6412 0.145721 23.3722 0.66341 24.7407 2.37692C25.657 1.79978 26.9243 1.60935 27.9417 1.43086C28.4772 1.34155 28.9949 1.86521 28.6796 2.39471C28.3106 3.01352 27.9596 3.67387 27.5729 4.30463C28.3583 4.07252 29.1675 3.92973 29.9766 3.82861C30.5598 3.75124 30.9108 4.64967 30.4646 5.00665C29.5185 5.76228 28.5784 6.62501 27.5729 7.31522C27.5432 13.9969 25.5916 19.6018 19.6239 23.4037C14.6497 26.5811 5.40356 26.0456 1.07811 21.72H1.07214C0.881702 21.6724 0.780579 21.5296 0.744881 21.375C0.578332 21.1251 0.69724 20.8158 0.917401 20.6967C1.00074 20.5955 1.10783 20.5181 1.24466 20.5003Z" fill="white"/>
</g>

<g id="ux">
  <path fill-rule="evenodd" clip-rule="evenodd" d="M23.33 20.5852C24.896 14.8386 21.188 8.90315 15.0965 7.29835C8.21747 5.4841 -1.54603 10.1953 0.625967 16.2383C1.34597 18.237 2.73197 18.7045 5.34647 18.7414L5.50997 18.7444C6.89147 18.7606 7.27997 18.8491 7.39697 19.0349C7.58747 19.3417 7.59047 19.83 7.37597 21.1737C7.27397 21.8079 7.24097 22.0292 7.20197 22.3758C6.96347 24.4865 7.32647 26.1326 8.73197 27.6224C13.124 32.2731 21.5615 27.0722 23.33 20.5852V20.5852ZM3.45497 15.253C2.36147 12.2145 9.35897 8.83825 14.3195 10.1451C18.845 11.3384 21.5585 15.6823 20.432 19.8196C19.175 24.4334 13.259 28.0796 10.931 25.6134C10.211 24.8523 10.0325 24.0381 10.184 22.7003C10.2155 22.4142 10.2455 22.2165 10.34 21.6295C10.6685 19.5689 10.664 18.6278 9.95297 17.4906C9.06197 16.0643 8.00297 15.8239 5.54747 15.7929L5.38847 15.7899C3.94247 15.7708 3.59897 15.6542 3.45347 15.253H3.45497Z" fill="#222A36"/>
  <path d="M8 14.75C7.50272 14.75 7.02581 14.5557 6.67417 14.21C6.32254 13.8642 6.125 13.3952 6.125 12.9063C6.125 12.4173 6.32254 11.9483 6.67417 11.6025C7.02581 11.2568 7.50272 11.0625 8 11.0625C8.49728 11.0625 8.97419 11.2568 9.32583 11.6025C9.67746 11.9483 9.875 12.4173 9.875 12.9063C9.875 13.3952 9.67746 13.8642 9.32583 14.21C8.97419 14.5557 8.49728 14.75 8 14.75V14.75Z" fill="#222A36"/>
  <path d="M13.625 14.75C13.1277 14.75 12.6508 14.5557 12.2992 14.21C11.9475 13.8642 11.75 13.3952 11.75 12.9063C11.75 12.4173 11.9475 11.9483 12.2992 11.6025C12.6508 11.2568 13.1277 11.0625 13.625 11.0625C14.1223 11.0625 14.5992 11.2568 14.9508 11.6025C15.3025 11.9483 15.5 12.4173 15.5 12.9063C15.5 13.3952 15.3025 13.8642 14.9508 14.21C14.5992 14.5557 14.1223 14.75 13.625 14.75Z" fill="#222A36"/>
  <path d="M17.375 19.175C16.8777 19.175 16.4008 18.9808 16.0492 18.635C15.6975 18.2893 15.5 17.8203 15.5 17.3313C15.5 16.8423 15.6975 16.3733 16.0492 16.0276C16.4008 15.6818 16.8777 15.4875 17.375 15.4875C17.8723 15.4875 18.3492 15.6818 18.7008 16.0276C19.0525 16.3733 19.25 16.8423 19.25 17.3313C19.25 17.8203 19.0525 18.2893 18.7008 18.635C18.3492 18.9808 17.8723 19.175 17.375 19.175Z" fill="#222A36"/>
  <path d="M15.125 24.3375C14.6277 24.3375 14.1508 24.1433 13.7992 23.7975C13.4475 23.4517 13.25 22.9828 13.25 22.4938C13.25 22.0048 13.4475 21.5358 13.7992 21.19C14.1508 20.8443 14.6277 20.65 15.125 20.65C15.6223 20.65 16.0992 20.8443 16.4508 21.19C16.8025 21.5358 17 22.0048 17 22.4938C17 22.9828 16.8025 23.4517 16.4508 23.7975C16.0992 24.1433 15.6223 24.3375 15.125 24.3375V24.3375Z" fill="#222A36"/>
  <path d="M20.555 5.31754C20.7329 5.22384 20.9281 5.16639 21.1291 5.14862C21.33 5.13086 21.5326 5.15315 21.7246 5.21415C21.9166 5.27516 22.0941 5.37363 22.2465 5.50367C22.3989 5.63371 22.523 5.79264 22.6115 5.97097L28.751 18.361C28.8535 18.5837 28.8659 18.8364 28.7857 19.0678C28.7055 19.2992 28.5387 19.4918 28.3192 19.6066C28.0997 19.7214 27.844 19.7497 27.6041 19.6857C27.3641 19.6217 27.158 19.4703 27.0275 19.2622L19.9655 7.35894C19.864 7.18771 19.7987 6.99808 19.7735 6.80142C19.7483 6.60477 19.7638 6.40514 19.819 6.2145C19.8742 6.02387 19.9679 5.84616 20.0947 5.69203C20.2214 5.5379 20.3785 5.41052 20.5565 5.31754H20.555Z" fill="#222A36"/>
  <path fill-rule="evenodd" clip-rule="evenodd" d="M17.8054 5.13899C18.5359 6.48861 19.7644 6.86621 20.9524 6.24524C22.1389 5.62574 22.5094 4.41181 21.7789 3.06219C20.9449 1.51639 19.1569 0.115138 17.9719 0.733163C16.7869 1.35266 16.9699 3.59319 17.8069 5.13899H17.8054ZM19.1299 4.44574C18.8643 3.92128 18.7015 3.35235 18.6499 2.76866C18.6276 2.52465 18.6367 2.27884 18.6769 2.03706L18.7039 2.05034C18.7789 2.08574 19.0114 2.19194 19.3084 2.42499C19.7614 2.78046 20.2114 3.30409 20.4544 3.75396C20.7979 4.38821 20.7004 4.70681 20.2474 4.94429C19.7974 5.18029 19.4734 5.07999 19.1299 4.44721V4.44574Z" fill="#222A36"/>
</g>

<g id="quote">
<path d="M9.54167 12.8333C9.07708 12.8333 8.63125 12.9042 8.1875 12.9688C8.33125 12.4854 8.47917 11.9938 8.71667 11.5521C8.95417 10.9104 9.325 10.3542 9.69375 9.79375C10.0021 9.1875 10.5458 8.77709 10.9458 8.25834C11.3646 7.75417 11.9354 7.41875 12.3875 7C12.8312 6.5625 13.4125 6.34375 13.875 6.03542C14.3583 5.75834 14.7792 5.45209 15.2292 5.30625L16.3521 4.84375L17.3396 4.43334L16.3292 0.395836L15.0854 0.695835C14.6875 0.795835 14.2021 0.912502 13.65 1.05209C13.0854 1.15625 12.4833 1.44167 11.8125 1.70209C11.15 1.99792 10.3833 2.19792 9.67083 2.67292C8.95417 3.12709 8.12708 3.50625 7.39791 4.11459C6.69166 4.74167 5.83958 5.28542 5.21041 6.08334C4.52291 6.82917 3.84375 7.6125 3.31666 8.50417C2.70625 9.35417 2.29166 10.2875 1.85416 11.2104C1.45833 12.1333 1.13958 13.0771 0.879164 13.9938C0.385414 15.8313 0.164581 17.5771 0.079164 19.0708C0.0083307 20.5667 0.0499974 21.8104 0.137497 22.7104C0.168747 23.1354 0.227081 23.5479 0.268748 23.8333L0.320831 24.1833L0.374997 24.1708C0.745541 25.9017 1.59855 27.4924 2.83534 28.7587C4.07213 30.0251 5.64217 30.9154 7.36383 31.3267C9.08549 31.738 10.8884 31.6535 12.5641 31.083C14.2397 30.5124 15.7196 29.4792 16.8325 28.1027C17.9454 26.7262 18.6459 25.0628 18.853 23.3048C19.06 21.5468 18.7651 19.7662 18.0024 18.1688C17.2396 16.5714 16.0403 15.2226 14.543 14.2784C13.0458 13.3342 11.3118 12.8332 9.54167 12.8333ZM32.4583 12.8333C31.9937 12.8333 31.5479 12.9042 31.1042 12.9688C31.2479 12.4854 31.3958 11.9938 31.6333 11.5521C31.8708 10.9104 32.2417 10.3542 32.6104 9.79375C32.9188 9.1875 33.4625 8.77709 33.8625 8.25834C34.2812 7.75417 34.8521 7.41875 35.3042 7C35.7479 6.5625 36.3292 6.34375 36.7917 6.03542C37.275 5.75834 37.6958 5.45209 38.1458 5.30625L39.2687 4.84375L40.2562 4.43334L39.2458 0.395836L38.0021 0.695835C37.6042 0.795835 37.1187 0.912502 36.5667 1.05209C36.0021 1.15625 35.4 1.44167 34.7292 1.70209C34.0688 2 33.3 2.19792 32.5875 2.675C31.8708 3.12917 31.0438 3.50834 30.3146 4.11667C29.6083 4.74375 28.7562 5.2875 28.1271 6.08334C27.4396 6.82917 26.7604 7.6125 26.2333 8.50417C25.6229 9.35417 25.2083 10.2875 24.7708 11.2104C24.375 12.1333 24.0562 13.0771 23.7958 13.9938C23.3021 15.8313 23.0812 17.5771 22.9958 19.0708C22.925 20.5667 22.9667 21.8104 23.0542 22.7104C23.0854 23.1354 23.1437 23.5479 23.1854 23.8333L23.2375 24.1833L23.2917 24.1708C23.6622 25.9017 24.5152 27.4924 25.752 28.7587C26.9888 30.0251 28.5588 30.9154 30.2805 31.3267C32.0022 31.738 33.8051 31.6535 35.4807 31.083C37.1564 30.5124 38.6363 29.4792 39.7492 28.1027C40.8621 26.7262 41.5626 25.0628 41.7696 23.3048C41.9766 21.5468 41.6817 19.7662 40.919 18.1688C40.1563 16.5714 38.957 15.2226 37.4597 14.2784C35.9624 13.3342 34.2284 12.8332 32.4583 12.8333Z" fill="#C4C4C4"/>
</g>

</svg>

